<svg width="300" height="300" viewBox="0 0 300 300" fill="none" xmlns="http://www.w3.org/2000/svg">
<path d="M2.23743 238.732H298.01V2.14536H2.23743V238.732Z" fill="#D10214"/>
<path d="M265.121 86.1771C256.037 86.1771 248.661 93.5536 248.661 102.603C248.661 111.688 256.037 119.064 265.121 119.064C274.171 119.064 281.547 111.687 281.547 102.603C281.547 93.5531 274.171 86.1771 265.121 86.1771ZM246.031 126.713C246.202 127.294 245.655 127.669 244.597 128.489L243.948 128.831L244.187 129.275C244.323 129.514 244.085 129.958 243.641 130.163L242.65 130.675C242.206 130.88 241.728 130.845 241.592 130.573L241.387 130.163L240.158 130.778L240.362 131.187C240.499 131.46 240.226 131.87 239.782 132.075L238.791 132.553C238.313 132.758 237.835 132.69 237.699 132.417L237.528 132.041C233.737 133.817 229.503 135.695 225.131 137.744L225.37 138.325C225.506 138.563 225.234 138.973 224.79 139.213L223.799 139.657C223.355 139.861 222.877 139.793 222.741 139.52L222.502 138.974L221.068 139.657L221.34 140.203C221.477 140.511 221.204 140.92 220.76 141.125L219.769 141.569C219.325 141.774 218.847 141.74 218.711 141.433L218.472 140.886C216.457 141.706 214.306 142.013 212.735 139.077C212.052 137.711 212.018 134.569 211.506 132.895C211.233 132.008 210.208 131.871 210.208 131.871C190.947 128.183 184.425 132.281 172.062 129.241C168.203 128.285 166.086 124.699 161.305 124.665C150.889 124.358 147.781 124.495 136.478 124.051C136 125.724 135.932 126.065 135.932 126.065L96.1808 125.861L102.225 128.866L104.206 146.385C104.206 146.385 102.601 146.863 102.123 146.932C102.499 150.449 102.874 155.162 103.079 159.396C103.25 163.221 103.455 167.217 103.421 169.778C103.386 170.563 103.386 172.442 102.294 174.491C101.577 175.857 100.313 176.984 99.2887 177.735C98.9468 178.008 97.4105 179.033 95.6346 180.091C93.7905 181.15 91.7415 182.243 90.6487 182.789C90.751 183.267 91.0928 183.745 91.1951 184.121C67.0171 195.8 37.0675 199.796 27.3686 218.373C26.2417 220.525 22.2803 219.398 22.1778 217.076C22.1429 216.017 22.1429 214.275 22.2128 213.353L21.8369 213.319C21.5291 213.319 21.2905 212.875 21.3246 212.397L21.3595 211.304C21.3945 210.791 21.6673 210.416 21.9741 210.416L22.3841 210.451C22.5205 209.358 22.7259 208.3 22.9987 207.275L22.6228 207.139C22.35 207.036 22.2469 206.558 22.4182 206.08L22.7601 205.055C22.9646 204.577 23.3065 204.304 23.6142 204.407L23.9901 204.509C25.6976 200.479 29.0443 198.703 30.581 194.912L30.3424 194.81C30.0346 194.708 29.9324 194.229 30.1037 193.751L30.4455 192.727C30.65 192.283 31.026 191.976 31.2996 192.078L31.5724 192.148C31.8111 191.602 32.0847 190.987 32.3916 190.407L32.0497 190.168C31.777 189.997 31.777 189.519 32.0497 189.109L32.6302 188.187C32.903 187.777 33.3471 187.572 33.5864 187.743L33.7227 187.813L33.8932 187.848C33.9632 187.848 33.9955 187.813 34.0637 187.778C34.2342 187.608 34.4055 187.436 34.576 187.3C36.1469 186.07 38.0934 186.275 39.6985 187.23C41.2011 188.152 47.1432 191.533 52.8461 186.376C62.2713 177.941 73.3016 166.433 81.6008 166.057C79.3469 161.173 75.4538 151.03 75.0099 147.275L72.2095 146.694C70.7752 143.586 67.2236 129.175 66.2333 118.349C66.2333 118.349 65.0722 106.67 66.1983 102.572C65.5496 102.502 64.3884 103.46 64.0469 103.46C62.5443 99.7374 67.4619 68.2859 72.3454 59.1335L79.8242 56.1625C79.0392 56.0602 73.6431 55.8206 59.437 54.6599C51.5142 61.6606 42.3281 69.2419 37.6833 73.3735C36.8982 73.954 35.566 78.4277 35.566 78.4277C35.566 78.4277 33.2097 80.5109 31.0582 82.0135C28.1554 84.0625 21.1207 85.5993 19.6179 83.2087C19.2419 82.6282 19.3101 82.3546 19.6528 82.0135C20.7456 80.8866 24.8436 78.9058 26.2438 76.3104C24.024 77.4373 21.497 78.6326 19.5163 78.4277C18.6621 78.3928 18.2527 76.2763 19.3458 75.9006C22.3168 74.6371 24.7073 74.0906 26.449 71.5977C28.1565 69.2413 30.2056 67.6363 32.9376 67.568C32.9376 67.568 46.1534 50.3223 53.9394 42.1263C56.0908 39.8724 60.0863 40.6237 60.0863 40.6237L60.7691 37.9941C60.7691 37.9941 87.4746 34.8182 99.9054 38.9503C99.5976 31.369 103.013 21.3631 114.795 21.3631C120.873 21.3631 129.821 26.7244 131.016 33.2473C131.392 35.2622 130.231 36.594 129.616 39.1211C128.557 42.9801 130.026 47.2149 129.581 48.5465C129.239 49.6734 127.976 49.571 126.917 51.0736C125.756 52.6786 124.458 55.6838 124.458 55.6838L122.854 59.3037L114.521 58.689C111.482 65.2458 105.232 78.667 103.047 91.917C109.603 92.4975 139.211 96.7663 139.211 96.7663L139.928 99.1915C139.928 99.1915 152.427 100.694 162.637 105.543C164.925 106.089 170.663 105.235 174.419 106.977C174.692 106.807 175.307 106.193 175.546 106.021C188.864 110.119 199.861 117.086 212.736 120.194C212.736 120.194 218.712 121.662 220.761 122.072C225.508 122.994 228.547 123.199 231.04 123.404C235.172 123.711 237.46 123.642 240.465 123.814C242.583 123.95 245.178 123.609 246.032 126.716" fill="white"/>
<path d="M282.606 271.079L277.996 285.456H287.148L282.606 271.079ZM288.753 291.193H276.288L274.068 297.852H266.146L277.518 266.059H287.661L298.964 297.852H290.973L288.753 291.193ZM262.833 279.48V296.761C259.862 297.785 255.935 298.434 251.837 298.434C240.773 298.434 235.582 293.516 235.582 281.94C235.582 270.431 240.772 265.479 251.837 265.479C255.765 265.479 259.487 266.094 262.321 267.255V273.402C259.214 272.344 255.764 271.729 252.452 271.729C245.793 271.729 243.709 274.427 243.709 281.94C243.709 289.795 245.895 292.39 252.179 292.39C253.613 292.39 255.013 292.287 256.345 292.117V285.014H250.437V279.481L262.833 279.48ZM221.99 266.059H229.947V297.852H221.99V266.059ZM195.455 266.059H203.378V291.808H217.038V297.852H195.455L195.455 266.059ZM166.428 296.623V290.442C170.252 291.705 173.667 292.149 177.048 292.149C180.702 292.149 182.307 291.193 182.307 288.734C182.307 286.583 181.624 285.968 178.687 285.354L173.394 284.261C167.896 283.134 166.051 280.88 166.051 275.451C166.051 268.484 170.15 265.479 178.414 265.479C182.171 265.479 185.688 266.093 188.557 267.186V273.402C185.142 272.241 181.966 271.728 178.892 271.728C174.965 271.728 173.633 272.753 173.633 275.246C173.633 277.295 174.555 277.875 177.117 278.422L182.239 279.514C188.249 280.812 189.889 282.827 189.889 288.496C189.889 295.326 185.688 298.434 177.117 298.434C173.36 298.434 169.741 297.82 166.428 296.624V296.623ZM139.142 266.059H161.408V272.138H147.065V278.832H158.983V284.808H147.065V291.808H161.715V297.854H139.143L139.142 266.059ZM119.061 291.808C123.706 291.808 125.242 289.384 125.242 281.939C125.242 274.563 123.706 272.138 119.061 272.138H113.051V291.808H119.061ZM105.094 266.059H119.301C130.433 266.059 133.337 270.636 133.337 281.939C133.337 292.935 130.161 297.853 119.301 297.853H105.094V266.059ZM98.5717 266.059V297.853H88.907L75.3834 274.87V297.853H68.007V266.059H77.6717L91.1612 289.076V266.059H98.5717ZM33.6865 287.506V266.059H41.6093V287.267C41.6093 290.784 43.2143 292.116 47.5173 292.116C51.786 292.116 53.3911 290.784 53.3911 287.267V266.059H61.3479V287.506C61.3479 294.984 57.011 298.434 47.5175 298.434C38.0241 298.434 33.687 294.984 33.687 287.506H33.6865ZM20.778 288.428C20.778 285.491 19.6168 284.261 16.919 284.261H9.78165V292.491H16.919C19.7535 292.491 20.778 291.296 20.778 288.428V288.428ZM9.78178 279.343H16.4411C19.1048 279.343 20.3 278.183 20.3 275.451C20.3 272.582 19.1731 271.455 16.4411 271.455H9.78178V279.343ZM28.4958 289.178C28.4958 294.847 25.8662 297.853 18.6947 297.853H2.2345V266.059H18.0801C25.4907 266.059 28.0517 268.996 28.0517 274.358C28.0517 278.49 26.5149 280.334 22.1095 281.427L21.2904 281.666L22.0073 281.803C26.9591 282.895 28.4958 284.739 28.4958 289.179" fill="#191917"/>
</svg>
