<svg width="300" height="300" viewBox="0 0 300 300" fill="none" xmlns="http://www.w3.org/2000/svg">
<path d="M160.176 134.889L168.712 143.333C167.355 144.111 165.998 144.944 164.585 145.667C160.628 147.611 156.275 148.722 151.809 148.944C142.312 149.333 134.115 146.278 127.331 139.722C122.639 135.278 119.529 129.444 118.455 123.111C116.816 113.722 119.134 105.333 125.239 98C129.988 92.1667 136.715 88.2778 144.234 87.0556C153.901 85.3334 162.72 87.4445 170.408 93.4445C176.4 98 180.471 104.611 181.827 111.944C182.449 115.333 182.562 118.778 182.054 122.222C181.997 122.389 181.997 122.5 181.94 122.667H148.756C148.191 122.722 147.626 122.5 147.286 122.056C144.29 119.056 141.238 116.056 138.185 113.111C138.072 113 137.959 112.889 137.789 112.667H169.221C169.221 112.5 169.164 112.278 169.164 112.111C166.62 104.5 161.532 99.6112 153.448 98.1112C143.442 96.3334 133.606 102.722 131.118 112.556C129.309 119.833 131.005 126.278 136.206 131.722C139.202 134.889 143.16 136.889 147.513 137.444C151.809 138.056 156.218 137.222 159.95 135.056C160.006 135 160.119 134.944 160.176 134.889V134.889Z" fill="#002E62"/>
<path d="M183.523 143.167C184.145 142.333 184.824 141.389 185.445 140.445C188.724 135.5 190.872 129.945 191.777 124.111C192.342 120.556 192.455 116.945 192.06 113.389C191.042 103.167 186.237 93.6667 178.492 86.7778C172.726 81.4445 165.49 77.889 157.688 76.5001C154.127 75.8334 150.509 75.6667 146.947 75.9445C138.637 76.5556 130.779 79.6667 124.278 84.7778C124.221 84.7778 124.221 84.8334 124.221 84.7778L115.459 76.2778C116.364 75.6112 117.212 74.889 118.173 74.2778C124.73 69.6667 132.192 66.5556 140.107 65.1112C144.573 64.2778 149.152 64.0001 153.731 64.3334C168.09 65.389 180.358 71.0001 190.251 81.2778C197.147 88.389 201.84 97.2223 203.875 106.778C204.892 111.333 205.232 116 204.949 120.667C204.327 131.556 200.37 141.945 193.529 150.556C193.134 151.056 192.738 151.556 192.342 152L183.523 143.167ZM107.997 83.6112L116.816 92.2778C116.759 92.389 116.703 92.5001 116.59 92.6112C112.519 97.9445 109.806 104.222 108.732 110.833C108.11 114.445 107.997 118.167 108.393 121.833C109.127 129.889 112.293 137.556 117.438 143.889C123.6 151.611 132.362 156.945 142.142 158.778C145.364 159.445 148.643 159.667 151.922 159.556C160.458 159.222 168.655 156.278 175.439 151.167L176.061 150.667L184.767 159.222C166.564 174.5 133.719 177.556 111.219 155.333C88.9456 133.333 92.0549 101.5 107.997 83.6112V83.6112ZM125.974 204.445V203.556V187.556C125.974 186.945 126.144 186.778 126.765 186.833C129.479 186.889 132.192 186.833 134.906 186.833H135.528V235.222H125.974V233.389C125.635 233.556 125.352 233.667 125.126 233.833C119.303 237 111.615 236.667 106.244 232.278C102.852 229.556 100.648 225.611 100.139 221.333C99.404 216.833 100.535 212.222 103.305 208.556C105.849 204.945 109.862 202.556 114.328 202.056C118.173 201.5 122.13 202.278 125.465 204.222C125.635 204.278 125.804 204.389 125.974 204.445V204.445ZM125.974 218.889C125.917 217.667 125.917 216.445 126.03 215.222C126.2 213.778 125.522 212.833 124.448 212C124.335 211.945 124.221 211.833 124.108 211.722C120.83 209.222 115.12 208.945 111.898 212.556C110.202 214.445 109.354 216.889 109.523 219.445C109.58 222.333 111.05 224.945 113.48 226.556C117.098 228.945 122.525 228.167 125.352 224.889C125.804 224.445 126.03 223.833 125.974 223.222C125.917 221.833 125.974 220.333 125.974 218.889V218.889ZM299.413 222.333H275.274C275.67 224.056 276.744 225.611 278.214 226.611C280.758 228.333 283.98 228.722 286.863 227.611C287.655 227.333 288.277 226.611 289.012 226.056C289.181 225.889 289.407 225.778 289.633 225.778H298.905C299.018 225.778 299.131 225.833 299.187 225.833C298.509 228.222 297.096 230.333 295.174 231.945C292.573 234.111 289.351 235.445 285.902 235.778C281.662 236.222 277.536 235.722 273.805 233.611C269.169 230.945 266.569 226.945 265.777 221.778C265.099 217.945 265.721 214 267.586 210.556C269.96 206.056 273.805 203.389 278.836 202.333C283.076 201.445 287.259 201.722 291.16 203.667C295.682 205.945 298.283 209.667 299.3 214.5C299.696 216.833 299.809 219.222 299.583 221.611C299.527 221.889 299.47 222.111 299.413 222.333V222.333ZM290.142 215.778C289.973 214.111 289.238 212.5 287.938 211.333C285.394 209 280.023 209.111 277.366 211.667C276.235 212.778 275.444 214.222 275.105 215.778H290.142ZM34.6186 222.333H10.4795V222.778C11.384 225.667 13.9845 227.722 17.0372 228.111C18.4505 228.333 19.9203 228.278 21.3336 227.889C22.4642 227.611 23.4253 227 24.1037 226.111C24.2732 225.945 24.4428 225.833 24.669 225.778H34.3359C33.8837 227.445 33.0357 229.056 31.905 230.389C29.135 233.611 25.5169 235.278 21.3336 235.778C17.9417 236.278 14.4367 235.889 11.2144 234.667C5.44816 232.333 2.05625 228.056 0.982147 222C0.190702 217.833 0.925615 213.556 3.07382 209.889C5.67429 205.5 9.68804 203.056 14.6628 202.222C18.507 201.556 22.2381 201.833 25.7996 203.5C30.6613 205.833 33.4314 209.722 34.3924 214.889C34.9578 217.333 34.7882 219.778 34.6186 222.333V222.333ZM25.2908 215.778C24.8951 213.445 23.9341 211.611 21.8424 210.445C20.4856 209.778 19.0158 209.5 17.4894 209.667C15.1716 209.667 13.0234 210.778 11.6667 212.556C10.9317 213.5 10.423 214.611 10.2534 215.778H25.2908ZM95.9556 222.333H71.5338C71.9861 224.167 73.1167 225.778 74.6996 226.778C77.1305 228.333 80.1832 228.667 82.9532 227.667C83.8012 227.389 84.4796 226.667 85.2145 226.167C85.4406 226 85.6668 225.778 85.8364 225.778H95.5033C95.2772 226.389 95.1076 226.945 94.8249 227.445C92.8463 231.611 89.4544 234.111 84.9884 235.222C79.6179 236.611 74.4169 236.167 69.6117 233.278C65.3719 230.778 62.941 226.945 62.093 222.167C61.3581 218.556 61.8104 214.778 63.3367 211.445C65.7676 206.222 70.064 203.222 75.7737 202.222C79.4483 201.5 83.2924 201.889 86.6843 203.389C91.7157 205.722 94.5988 209.667 95.5598 215C95.7294 216.222 95.8425 217.445 95.8425 218.611C96.0121 219.889 95.9556 221.056 95.9556 222.333ZM86.4582 215.778C86.1756 213.833 85.4406 212.167 83.8578 211C81.4834 209.222 77.5262 209.167 74.8692 210.778C73.0602 211.889 71.8165 213.722 71.4208 215.778H86.4582ZM213.768 224.056H222.417C222.643 224.722 222.813 225.333 223.096 225.889C223.944 227.556 225.413 228.389 227.222 228.722C229.031 229.111 230.953 229 232.706 228.5C233.102 228.389 233.497 228.222 233.893 228C235.646 227 235.702 225.056 233.893 224.111C232.932 223.667 231.915 223.333 230.897 223.167C228.014 222.611 225.131 222.222 222.304 221.5C219.817 220.945 217.612 219.445 216.255 217.278C213.542 212.611 215.181 206.667 219.873 203.945C222.248 202.667 224.905 201.945 227.618 201.778C230.614 201.5 233.61 201.889 236.381 202.833C240.79 204.333 243.39 207.333 244.069 211.889V212.722H235.533C235.137 210.278 233.384 208.833 229.823 208.722C228.749 208.778 227.618 208.889 226.544 209.111C226.261 209.167 225.979 209.278 225.753 209.445C223.887 210.5 223.83 212.556 225.639 213.667C226.827 214.445 228.183 214.611 229.54 214.833C232.367 215.333 235.306 215.556 238.02 216.556C240.733 217.556 242.882 219.111 243.843 221.889C245.369 226.389 243.843 231.667 238.698 234.278C235.419 235.889 231.971 236.278 228.41 236.167C225.357 236.167 222.361 235.389 219.704 233.945C216.538 232.111 214.729 229.333 214.107 225.778C213.881 225.222 213.824 224.667 213.768 224.056V224.056ZM156.727 202.611H166.451C166.846 202.611 166.903 202.833 167.016 203.111L174.874 222C174.987 222.278 175.1 222.5 175.27 222.945L175.665 222.167C178.322 215.833 180.923 209.5 183.523 203.167C183.636 202.778 183.976 202.5 184.371 202.556H193.869C193.756 202.833 193.699 203.056 193.586 203.222C188.95 213.722 184.371 224.222 179.736 234.722C179.623 235.056 179.34 235.222 179.001 235.167H171.595C171.199 235.222 170.804 234.945 170.747 234.556C166.959 225.889 163.115 217.167 159.271 208.5C158.48 206.611 157.632 204.667 156.727 202.611V202.611ZM60.6232 210.889C58.9272 211.111 57.2313 211.278 55.5919 211.556C54.6308 211.722 53.6698 212.056 52.7653 212.445C50.3909 213.445 48.8646 215.778 48.9776 218.333V235.222H39.4803V202.667H48.9776V206.333C52.1434 203.5 56.3268 201.945 60.6232 202.056V210.889ZM207.719 235.222H198.222V202.667H207.719V235.222ZM143.442 202.667H152.883V235.222H143.442V202.667ZM260.067 235.222H250.683V202.667H260.067V235.222Z" fill="#002E62"/>
</svg>
