<svg width="300" height="300" viewBox="0 0 300 300" fill="none" xmlns="http://www.w3.org/2000/svg">
<path d="M120.883 90.1294C125.017 84.0533 131.226 79.4695 138.208 77.3223C137.172 78.3236 136.053 79.2487 135.167 80.3985C138.946 79.9416 142.861 80.3566 146.365 81.9099C146.738 85.1992 147.138 88.4886 147.473 91.7817C147.722 91.6028 147.842 91.3591 147.835 91.0431C148.178 88.0051 148.46 84.9632 148.89 81.9404C152.345 80.2881 156.301 79.9645 160.061 80.4061C159.199 79.2335 158.038 78.3426 157.021 77.3147C163.841 79.4962 170.057 83.8629 174.097 89.8706C172.883 89.2805 171.768 88.481 170.476 88.0736C172.054 91.5571 172.932 95.4289 172.492 99.2665C169.417 100.538 166.452 102.072 163.388 103.378C163.863 103.641 164.398 103.439 164.896 103.352C167.654 102.727 170.446 102.247 173.204 101.619C175.837 104.478 177.378 108.187 178.181 111.975C178.908 110.878 179.454 109.675 179.869 108.426C180.193 110.063 179.937 111.739 179.741 113.372C178.995 118.782 176.802 123.925 173.641 128.334C173.814 127.032 174.074 125.745 174.217 124.435C171.312 126.841 168.076 129 164.33 129.773C161.983 127.26 159.76 124.626 157.348 122.174C158.694 125.345 160.694 128.204 162.239 131.288C160.272 134.642 157.303 137.277 153.969 139.195C155.265 139.431 156.572 139.591 157.872 139.812C151.263 142.184 143.965 141.956 137.3 139.923C138.573 139.553 139.9 139.439 141.196 139.199C137.91 137.239 134.96 134.635 132.978 131.311C134.429 128.524 136.038 125.821 137.545 123.065C137.741 122.787 137.782 122.494 137.669 122.181C135.521 124.816 133.129 127.234 130.876 129.777C128.219 129.164 125.699 127.987 123.494 126.377C122.628 125.775 121.908 124.98 120.992 124.451C121.132 125.764 121.403 127.058 121.588 128.364C117.292 122.566 115.092 115.367 115.051 108.148C115.759 109.397 116.204 110.787 117.029 111.971C117.816 108.175 119.391 104.497 121.991 101.608C125.299 102.24 128.573 103.108 131.915 103.542C128.98 101.935 125.845 100.736 122.85 99.2475C122.511 98.7297 122.609 98.0558 122.567 97.4657C122.59 94.2259 123.385 91.0279 124.734 88.1003C123.347 88.5495 122.089 89.3185 120.883 90.1294ZM133.246 104.006C135.069 109.675 136.923 115.332 138.694 121.016C144.647 121.089 150.604 121.115 156.557 121.005C158.275 115.31 160.178 109.668 161.975 103.995C157.19 100.481 152.409 96.9594 147.616 93.4568C142.812 96.9518 138.027 100.477 133.246 104.006Z" fill="white"/>
<path d="M137.149 0.50634C138.034 0.411162 139.029 0.1637 139.866 0.586289C140.329 1.52284 140.359 2.60025 140.578 3.60913C143.015 16.8046 145.419 30.0114 147.88 43.2068C147.948 43.7284 148.087 44.2995 147.801 44.7906C147.273 45.3388 146.44 45.316 145.758 45.5063C132.198 48.1409 120.013 57.0571 113.234 69.2018C112.895 69.9975 111.95 70.4391 111.215 69.868C99.4591 62.9848 87.7184 56.0711 75.9665 49.1764C75.2619 48.7538 74.5045 48.3997 73.9092 47.8287C73.2159 46.7703 74.3689 45.7272 74.8022 44.8058C86.7011 24.5406 106.418 9.17512 128.799 2.58883C131.546 1.76268 134.338 1.08883 137.149 0.50634V0.50634Z" fill="#931C80"/>
<path d="M158.4 10.9759C182.401 9.26649 206.892 17.4251 225.219 33.1675C226.033 33.8338 227.513 34.8122 226.602 36.0114C217.306 46.9378 207.939 57.8033 198.614 68.7031C198.094 69.4645 197.024 69.2779 196.485 68.6459C185.965 59.269 171.263 54.8947 157.401 57.1333C156.617 57.3731 155.525 57.1218 155.48 56.1434C153.396 42.0114 151.343 27.868 149.27 13.7322C149.086 13.0622 149.233 12.1561 150.005 11.9581C152.774 11.4327 155.589 11.1891 158.4 10.9759V10.9759Z" fill="#E10B17"/>
<path d="M58.0051 48.0228C58.7399 47.5812 59.4972 48.1104 60.1641 48.4264C72.4059 55.085 84.6703 61.7018 96.9083 68.368C98.0537 68.7944 97.7071 70.0964 97.1796 70.8845C90.5896 83.2272 89.7041 98.4937 94.8397 111.529C95.3295 112.332 95.0997 113.536 94.0899 113.76C80.9363 118.881 67.7865 124.013 54.6254 129.118C53.9698 129.438 53.0052 129.392 52.7527 128.566C43.416 105.084 44.162 77.8096 54.5048 54.7843C55.6239 52.5152 56.5168 50.0711 58.0051 48.0228V48.0228Z" fill="#02509B"/>
<path d="M223.508 50.4023C224.032 50.0482 224.786 50.2386 225.192 50.7069C233.757 58.8274 240.78 68.6003 245.772 79.3439C252.381 93.4987 255.471 109.325 254.593 124.953C254.616 125.928 253.549 126.263 252.758 126.114C238.678 125.41 224.593 124.759 210.513 124.028C209.556 124.108 209.213 123.023 209.356 122.242C210.151 108.053 204.371 93.6739 194.032 84.0457C193.275 83.5165 193.185 82.4315 193.915 81.8376C203.38 71.7297 212.868 61.6447 222.336 51.5406C222.709 51.1447 223.067 50.7259 223.508 50.4023Z" fill="#EF8704"/>
<path d="M143.89 73.1421C149.666 72.5863 155.589 73.3325 160.962 75.5825C168.287 78.5863 174.541 84.1637 178.426 91.1155C181.964 97.3896 183.528 104.775 182.857 111.963C182.284 118.827 179.624 125.475 175.404 130.877C171.259 136.161 165.645 140.273 159.334 142.489C153.049 144.72 146.135 145.108 139.643 143.589C132.906 142.055 126.667 138.415 121.927 133.348C116.644 127.763 113.223 120.396 112.413 112.709C111.479 104.452 113.498 95.8706 118.091 88.9607C123.796 80.1624 133.521 74.1662 143.89 73.1421V73.1421ZM120.883 90.1294C122.089 89.3185 123.347 88.5495 124.734 88.1003C123.385 91.0279 122.59 94.2259 122.567 97.4657C122.609 98.0558 122.511 98.7297 122.85 99.2475C125.845 100.736 128.98 101.935 131.915 103.542C128.573 103.108 125.299 102.24 121.991 101.608C119.391 104.497 117.816 108.175 117.029 111.971C116.204 110.787 115.759 109.397 115.051 108.148C115.092 115.367 117.292 122.566 121.588 128.364C121.403 127.058 121.132 125.764 120.992 124.451C121.908 124.98 122.628 125.775 123.494 126.377C125.699 127.987 128.219 129.164 130.876 129.777C133.129 127.234 135.521 124.816 137.669 122.181C137.782 122.494 137.741 122.787 137.545 123.065C136.038 125.821 134.429 128.524 132.978 131.311C134.96 134.635 137.91 137.239 141.196 139.199C139.9 139.439 138.573 139.553 137.3 139.923C143.965 141.956 151.263 142.184 157.872 139.812C156.572 139.591 155.265 139.431 153.969 139.195C157.303 137.277 160.272 134.642 162.239 131.288C160.694 128.204 158.694 125.345 157.349 122.174C159.76 124.626 161.983 127.26 164.33 129.773C168.076 129 171.312 126.841 174.217 124.435C174.074 125.745 173.814 127.032 173.641 128.334C176.802 123.925 178.995 118.782 179.741 113.372C179.937 111.739 180.193 110.063 179.869 108.426C179.455 109.675 178.908 110.878 178.181 111.975C177.378 108.187 175.837 104.478 173.204 101.619C170.446 102.247 167.654 102.727 164.896 103.352C164.398 103.439 163.863 103.641 163.388 103.378C166.452 102.072 169.417 100.538 172.492 99.2665C172.932 95.4289 172.054 91.5571 170.476 88.0736C171.768 88.481 172.883 89.2805 174.097 89.8706C170.057 83.8629 163.841 79.4962 157.021 77.3147C158.038 78.3426 159.199 79.2335 160.061 80.4061C156.301 79.9645 152.345 80.2881 148.89 81.9404C148.46 84.9632 148.178 88.0051 147.835 91.0431C147.842 91.3591 147.722 91.6028 147.473 91.7817C147.138 88.4886 146.738 85.1992 146.365 81.9099C142.861 80.3566 138.946 79.9416 135.167 80.3985C136.053 79.2487 137.172 78.3236 138.208 77.3223C131.226 79.4695 125.017 84.0533 120.883 90.1294V90.1294Z" fill="#1E1E1C"/>
<path d="M133.245 104.006C138.027 100.477 142.812 96.9518 147.616 93.4569C152.409 96.9594 157.19 100.481 161.975 103.995C160.178 109.668 158.275 115.31 156.557 121.005C150.604 121.115 144.647 121.089 138.694 121.016C136.923 115.332 135.069 109.675 133.245 104.006V104.006Z" fill="#1E1E1C"/>
<path d="M84.4782 123.514C85.5256 123.103 86.0682 124.321 86.3696 125.102C91.818 137.787 102.911 147.822 115.97 151.934C116.49 152.124 117.081 152.235 117.511 152.623C117.993 153.194 117.654 153.952 117.492 154.576C113.306 168.004 109.225 181.462 105.028 194.882C104.892 195.784 103.996 196.272 103.167 195.895C90.1413 191.901 78.0163 184.942 67.9109 175.728C57.8545 166.595 49.7913 155.227 44.4635 142.671C43.985 141.902 44.3844 140.89 45.2359 140.638C58.3217 134.935 71.3773 129.164 84.4782 123.514V123.514Z" fill="#198CCD"/>
<path d="M196.338 129.202C196.862 128.855 197.51 129.004 198.098 129.027C212.016 130.15 225.942 131.212 239.864 132.343C240.769 132.278 241.225 133.218 241.055 134.022C240.087 147.841 235.995 161.41 229.265 173.475C222.713 185.261 213.621 195.594 202.819 203.566C202.193 204.164 201.116 204.145 200.671 203.338C192.314 191.859 183.987 180.35 175.645 168.857C174.937 168.141 175.151 167.003 176.044 166.569C187.224 158.437 194.654 145.264 195.777 131.379C195.897 130.652 195.728 129.742 196.338 129.202Z" fill="#FDEA14"/>
<path d="M161.361 160.077C162.103 159.461 163.117 159.857 163.49 160.683C171.244 172.363 179.014 184.028 186.76 195.708C187.254 196.363 187.691 197.429 186.809 197.981C164.304 213.735 134.756 218.536 108.464 210.906C107.601 210.75 107.39 209.741 107.681 209.022C111.384 195.415 115.111 181.816 118.815 168.213C118.984 167.665 119.123 166.991 119.73 166.778C120.503 166.652 121.252 166.976 121.995 167.151C135.314 170.707 150.043 167.973 161.361 160.077Z" fill="#009541"/>
<path d="M157.552 231.312C159.967 230.528 162.846 231.069 164.654 232.926C166.629 234.731 167.247 237.746 166.403 240.259C165.479 243.244 162.39 245.345 159.3 245.098C155.514 245.082 152.446 241.317 152.827 237.575C152.978 234.777 154.918 232.195 157.552 231.312Z" fill="black"/>
<path d="M44.8967 286.23C45.0361 270.221 44.844 254.208 44.9909 238.203C49.1092 238.253 53.2237 238.237 57.342 238.211C57.4249 250.588 57.3495 262.968 57.3796 275.349C62.3306 275.338 67.2853 275.372 72.2363 275.33C72.2853 278.985 72.2438 282.64 72.2589 286.294C63.1369 286.253 54.0112 286.382 44.8967 286.23Z" fill="black"/>
<path d="M121.618 238.23C125.74 238.272 129.869 238.135 133.991 238.302C133.916 250.648 133.976 262.999 133.961 275.345C138.931 275.326 143.901 275.395 148.871 275.311C149.018 278.966 148.897 282.632 148.935 286.294H121.618V238.23Z" fill="black"/>
<path d="M89.3989 247.321C92.9068 246.704 96.7274 246.978 99.8434 248.859C101.143 249.617 102.289 250.603 103.442 251.566C103.43 250.294 103.434 249.023 103.446 247.755C107.27 247.744 111.098 247.736 114.926 247.759C114.937 260.604 114.93 273.449 114.93 286.294C111.03 286.283 107.134 286.313 103.235 286.279C103.238 285.145 103.261 284.01 103.257 282.879C101.087 284.536 98.7508 286.089 96.0643 286.728C90.5858 288.069 84.3688 286.786 80.1602 282.902C76.7615 279.784 74.9304 275.239 74.4217 270.697C73.7435 265.572 74.6516 260.159 77.4548 255.784C80.0923 251.497 84.4404 248.223 89.3989 247.321V247.321ZM92.0138 258.32C88.8752 259.241 86.5429 262.176 86.0832 265.412C85.4615 269.315 87.029 273.849 90.6423 275.737C94.1954 277.614 98.9052 276.605 101.543 273.598C104.968 269.81 104.508 263.181 100.593 259.911C98.2496 257.931 94.8962 257.437 92.0138 258.32V258.32Z" fill="black"/>
<path d="M177.22 250.363C181.255 247.039 186.968 246.244 191.881 247.755C194.349 248.517 196.398 250.184 198.192 252.004C198.203 250.595 198.203 249.187 198.181 247.782C201.847 247.687 205.513 247.793 209.183 247.728C209.273 257.159 209.194 266.593 209.22 276.023C209.156 280.329 209.639 284.829 207.943 288.906C206.131 293.764 201.79 297.335 196.922 298.766C191.044 300.503 184.443 300.137 178.953 297.297C174.775 295.18 171.583 291.038 171.041 286.291C175.366 286.31 179.692 286.268 184.014 286.313C184.835 287.718 186.086 288.944 187.725 289.249C190.091 289.668 192.653 289.47 194.793 288.301C196.342 287.475 197.51 285.86 197.615 284.067C197.668 282.933 197.615 281.798 197.642 280.664C194.812 283.058 191.304 284.775 187.585 285.023C183.478 285.255 179.255 283.85 176.225 281.003C172.13 277.287 170.25 271.595 170.306 266.132C170.314 260.235 172.567 254.105 177.22 250.363ZM187.747 257.258C185.649 257.673 183.821 259.108 182.823 261.004C180.483 265.313 181.267 271.846 185.837 274.329C189.149 275.992 193.542 275.181 195.961 272.319C198.799 269.136 198.9 264.015 196.606 260.501C194.737 257.627 190.958 256.599 187.747 257.258V257.258Z" fill="black"/>
<path d="M222.83 249.967C226.59 247.374 231.383 246.48 235.829 247.352C238.7 247.953 241.217 249.647 243.305 251.676C243.316 250.363 243.327 249.053 243.32 247.747C247.114 247.747 250.912 247.74 254.71 247.751C254.725 260.6 254.714 273.445 254.717 286.294H243.135C243.124 285.065 243.109 283.835 243.169 282.609C236.756 289.127 225.106 288.643 219.009 281.928C215.166 277.69 213.829 271.698 214.066 266.086C214.371 259.751 217.551 253.496 222.83 249.967ZM231.779 258.343C229.201 259.138 227.118 261.259 226.304 263.844C224.857 268.176 226.455 273.735 230.663 275.848C234.461 277.706 239.416 276.366 241.899 272.954C244.695 269.147 244.156 263.223 240.603 260.09C238.267 257.924 234.748 257.406 231.779 258.343V258.343Z" fill="black"/>
<path d="M153.931 247.759C157.774 247.717 161.621 247.782 165.468 247.725C165.6 260.562 165.434 273.404 165.551 286.241C161.678 286.363 157.801 286.26 153.927 286.294C153.927 273.449 153.923 260.604 153.931 247.759V247.759Z" fill="black"/>
</svg>
