<svg width="300" height="300" viewBox="0 0 300 300" fill="none" xmlns="http://www.w3.org/2000/svg">
<path d="M37.2894 87.4073C41.2597 75.1506 47.4715 65.0956 55.8378 64.196C71.8666 62.4642 90.5713 88.5086 93.8466 119.109C96.87 147.407 90.0327 178.386 74.0038 180.126C64.2214 181.177 55.1601 177.31 48.1665 162.623C56.3343 164.112 64.7537 163.659 72.7007 161.303C75.9927 147.06 77.6159 132.503 77.5397 117.907C72.7755 104.377 65.6884 91.7216 56.5762 80.4717C49.8775 82.0089 43.3998 84.3383 37.2894 87.4073" fill="#12233F"/>
<path d="M50.1394 146.879C43.8147 147.628 37.5161 138.523 36.0305 126.577C34.5275 114.631 38.4544 104.366 44.753 103.634C51.0603 102.903 57.3849 111.982 58.8619 123.928C60.3388 135.883 56.438 146.148 50.1394 146.879" fill="#12233F"/>
<path d="M194.114 88.175C194.508 92.0993 193.694 96.0486 191.776 99.5272C189.858 103.006 186.921 105.859 183.334 107.727C179.746 109.596 175.668 110.398 171.611 110.032C167.554 109.666 163.699 108.148 160.53 105.669C157.362 103.191 155.021 99.8615 153.8 96.0997C152.58 92.3379 152.536 88.3111 153.672 84.5249C154.809 80.7387 157.076 77.3617 160.189 74.8179C163.302 72.2742 167.122 70.6769 171.17 70.2268C173.895 69.9468 176.65 70.1889 179.277 70.9395C181.905 71.69 184.354 72.9342 186.485 74.6009C188.616 76.2677 190.386 78.3244 191.695 80.6534C193.004 82.9825 193.826 85.5384 194.114 88.175Z" fill="#12233F"/>
<path d="M231.857 84.1521C230.438 68.2616 222.561 53.565 209.956 43.2884C197.35 33.0119 181.046 27.9952 164.622 29.3396C148.31 31.6277 133.603 40.0865 123.73 52.8586C113.858 65.6306 109.627 81.6719 111.966 97.4602C113.306 111.062 119.307 123.839 129.015 133.761C138.723 143.682 151.581 150.178 165.543 152.214C165.543 152.214 165.031 146.354 164.292 140.528C163.614 134.736 162.789 129.019 162.789 129.019L155.613 129.751C150.227 124.669 145.303 119.147 140.896 113.248C136.913 107.613 133.484 101.629 130.653 95.3753C130.653 95.3753 133.703 84.9003 137.716 75.2325C141.843 65.4217 146.908 56.4264 146.908 56.4264C153.383 54.993 159.931 53.8846 166.525 53.1057C177.185 51.9287 188.192 51.8447 188.192 51.8447C193.146 56.7022 197.706 61.9215 201.832 67.4562C206.064 73.456 209.864 79.7311 213.204 86.237C212.13 92.8314 210.315 99.2925 207.792 105.505C204.759 112.357 201.113 118.939 196.897 125.177L190.433 126.203C190.433 126.203 191.311 131.718 191.737 137.376C192.214 143.327 192.501 149.213 192.501 149.213C205.619 144.168 216.618 135.025 223.749 123.236C230.88 111.448 233.734 97.6905 231.857 84.1521" fill="#12233F"/>
<path d="M219.792 33.3371C204.545 20.0627 191.956 9.66345 192.121 9.01663C195.547 10.0356 198.829 11.4587 201.895 13.2537C209.857 17.2827 217.277 22.2435 223.988 28.0245C233.727 35.9977 241.803 45.6962 247.784 56.5993C237.957 49.4229 228.608 41.6535 219.792 33.3376" fill="#12233F"/>
<path d="M110.486 6.75428C102.973 9.34548 95.7466 12.6574 88.9147 16.6407C103.281 14.2142 117.068 9.2622 129.591 2.02963C123.089 3.04706 116.695 4.62832 110.486 6.75428" fill="#12233F"/>
<path d="M166.282 3.24819C158.554 0.21 150.102 -0.680908 141.879 0.6757C144.498 1.05197 147.027 1.87455 149.35 3.10527L119.707 16.0014L84.2527 24.9883C82.5373 24.7027 80.9708 23.8678 79.8046 22.6175C70.6129 29.4102 64.7574 35.5136 64.9225 36.9764C65.2526 39.902 89.4306 34.488 117.414 25.1648C145.432 15.8579 167.29 6.03926 166.282 3.24769" fill="#12233F"/>
<path d="M245.986 123.883C249.644 98.7302 254.909 78.1666 257.472 79.0157C263.404 94.2422 264.992 110.733 262.067 126.758C258.922 147.842 248.61 170.314 244.24 170.062C241.547 169.902 242.355 149.011 245.986 123.883Z" fill="#12233F"/>
<path d="M129.346 218.608C116.315 216.036 109.773 211.101 107.975 204.25C103.961 189.134 129.346 175.17 160.77 170.53C189.492 166.284 214.191 175.204 216.789 185.536C218.804 193.565 214.947 200.029 203.957 207.049C205.114 201.32 205.281 195.446 204.452 189.664C190.792 186.63 176.939 184.47 162.985 183.199C149.098 187.795 135.913 194.18 123.786 202.182C124.522 207.954 126.411 213.533 129.347 218.609" fill="#12233F"/>
<path d="M188.935 205.382C189.856 210.754 180.638 216.664 168.345 218.564C156.034 220.473 145.383 217.657 144.506 212.259C143.585 206.879 152.829 200.961 165.113 199.069C177.363 197.169 188.057 199.994 188.935 205.383" fill="#12233F"/>
<path d="M27.6495 258.003V288.478H40.5421V297.423H17.0417V258.003H27.6495Z" fill="#12233F"/>
<path d="M68.3254 258.003H57.7003V297.423H68.3254V258.003Z" fill="#12233F"/>
<path d="M107.034 256.574C110.75 256.383 114.446 257.209 117.699 258.958C120.952 260.706 123.63 263.307 125.426 266.46L116.903 270.983C115.903 269.287 114.446 267.885 112.689 266.926C110.931 265.967 108.938 265.487 106.921 265.536C99.9532 265.536 96.8083 271.017 96.8083 278.188C96.8083 284.871 99.988 290.218 107.868 290.218C109.98 290.254 112.039 289.575 113.689 288.298C115.339 287.021 116.476 285.226 116.903 283.224H107.572V274.985H127.954V277.145C128.363 279.956 128.12 282.819 127.242 285.527C126.364 288.235 124.873 290.72 122.877 292.8C120.882 294.88 118.432 296.503 115.706 297.552C112.98 298.6 110.047 299.047 107.121 298.86C104.269 298.915 101.436 298.404 98.7964 297.357C96.157 296.311 93.7673 294.752 91.775 292.777C89.7826 290.802 88.23 288.452 87.2129 285.874C86.1959 283.295 85.736 280.542 85.8617 277.784C85.7676 275.035 86.2454 272.296 87.2666 269.729C88.2878 267.162 89.8317 264.82 91.8065 262.841C93.7814 260.863 96.1469 259.288 98.7627 258.212C101.378 257.135 104.191 256.578 107.034 256.574" fill="#12233F"/>
<path d="M155.767 258.006V282.193C155.649 283.152 155.757 284.125 156.084 285.038C156.411 285.951 156.947 286.78 157.653 287.463C158.359 288.146 159.216 288.665 160.159 288.982C161.103 289.298 162.108 289.403 163.099 289.288C164.038 289.391 164.989 289.295 165.885 289.008C166.782 288.72 167.603 288.247 168.292 287.622C168.981 286.996 169.522 286.234 169.876 285.386C170.231 284.539 170.391 283.627 170.345 282.714V258.006H181.083V283.227C181.083 292.231 174.741 298.553 162.873 298.553C153.908 298.553 145.133 294.03 145.133 284.354V258.007L155.767 258.006Z" fill="#12233F"/>
<path d="M211.43 288.663H224.618V297.423H200.796V258.003H224.392V266.956H211.43V273.346H223.645V282.08H211.43V288.663Z" fill="#12233F"/>
<path d="M281.714 297.423H271.054V266.452H265.207V258.003H281.714V297.423Z" fill="#12233F"/>
<path d="M37.2894 87.4073C41.2597 75.1506 47.4715 65.0956 55.8378 64.196C71.8666 62.4642 90.5713 88.5086 93.8466 119.109C96.87 147.407 90.0327 178.386 74.0038 180.126C64.2214 181.177 55.1601 177.31 48.1665 162.623C56.3343 164.112 64.7537 163.659 72.7007 161.303C75.9927 147.06 77.6159 132.503 77.5397 117.907C72.7755 104.377 65.6884 91.7216 56.5762 80.4717C49.8775 82.0089 43.3998 84.3383 37.2894 87.4073" fill="#12233F"/>
<path d="M50.1394 146.879C43.8147 147.628 37.5161 138.523 36.0305 126.577C34.5275 114.631 38.4544 104.366 44.753 103.634C51.0603 102.903 57.3849 111.982 58.8619 123.928C60.3388 135.883 56.438 146.148 50.1394 146.879" fill="#12233F"/>
<path d="M194.114 88.175C194.508 92.0993 193.694 96.0486 191.776 99.5272C189.858 103.006 186.921 105.859 183.334 107.727C179.746 109.596 175.668 110.398 171.611 110.032C167.554 109.666 163.699 108.148 160.53 105.669C157.362 103.191 155.021 99.8615 153.8 96.0997C152.58 92.3379 152.536 88.3111 153.672 84.5249C154.809 80.7387 157.076 77.3617 160.189 74.8179C163.302 72.2742 167.122 70.6769 171.17 70.2268C173.895 69.9468 176.65 70.1889 179.277 70.9395C181.905 71.69 184.354 72.9342 186.485 74.6009C188.616 76.2677 190.386 78.3244 191.695 80.6534C193.004 82.9825 193.826 85.5384 194.114 88.175Z" fill="#12233F"/>
<path d="M231.857 84.1521C230.438 68.2616 222.561 53.565 209.956 43.2884C197.35 33.0119 181.046 27.9952 164.622 29.3396C148.31 31.6277 133.603 40.0865 123.73 52.8586C113.858 65.6306 109.627 81.6719 111.966 97.4602C113.306 111.062 119.307 123.839 129.015 133.761C138.723 143.682 151.581 150.178 165.543 152.214C165.543 152.214 165.031 146.354 164.292 140.528C163.614 134.736 162.789 129.019 162.789 129.019L155.613 129.751C150.227 124.669 145.303 119.147 140.896 113.248C136.913 107.613 133.484 101.629 130.653 95.3753C130.653 95.3753 133.703 84.9003 137.716 75.2325C141.843 65.4217 146.908 56.4264 146.908 56.4264C153.383 54.993 159.931 53.8846 166.525 53.1057C177.185 51.9287 188.192 51.8447 188.192 51.8447C193.146 56.7022 197.706 61.9215 201.832 67.4562C206.064 73.456 209.864 79.7311 213.204 86.237C212.13 92.8314 210.315 99.2925 207.792 105.505C204.759 112.357 201.113 118.939 196.897 125.177L190.433 126.203C190.433 126.203 191.311 131.718 191.737 137.376C192.214 143.327 192.501 149.213 192.501 149.213C205.619 144.168 216.618 135.025 223.749 123.236C230.88 111.448 233.734 97.6905 231.857 84.1521" fill="#12233F"/>
<path d="M219.792 33.3371C204.545 20.0627 191.956 9.66345 192.121 9.01663C195.547 10.0356 198.829 11.4587 201.895 13.2537C209.857 17.2827 217.277 22.2435 223.988 28.0245C233.727 35.9977 241.803 45.6962 247.784 56.5993C237.957 49.4229 228.608 41.6535 219.792 33.3376" fill="#12233F"/>
<path d="M110.486 6.75428C102.973 9.34548 95.7466 12.6574 88.9147 16.6407C103.281 14.2142 117.068 9.2622 129.591 2.02963C123.089 3.04706 116.695 4.62832 110.486 6.75428" fill="#12233F"/>
<path d="M166.282 3.24819C158.554 0.21 150.102 -0.680908 141.879 0.6757C144.498 1.05197 147.027 1.87455 149.35 3.10527L119.707 16.0014L84.2527 24.9883C82.5373 24.7027 80.9708 23.8678 79.8046 22.6175C70.6129 29.4102 64.7574 35.5136 64.9225 36.9764C65.2526 39.902 89.4306 34.488 117.414 25.1648C145.432 15.8579 167.29 6.03926 166.282 3.24769" fill="#12233F"/>
<path d="M245.986 123.883C249.644 98.7302 254.909 78.1666 257.472 79.0157C263.404 94.2422 264.992 110.733 262.067 126.758C258.922 147.842 248.61 170.314 244.24 170.062C241.547 169.902 242.355 149.011 245.986 123.883Z" fill="#12233F"/>
<path d="M129.346 218.608C116.315 216.036 109.773 211.101 107.975 204.25C103.961 189.134 129.346 175.17 160.77 170.53C189.492 166.284 214.191 175.204 216.789 185.536C218.804 193.565 214.947 200.029 203.957 207.049C205.114 201.32 205.281 195.446 204.452 189.664C190.792 186.63 176.939 184.47 162.985 183.199C149.098 187.795 135.913 194.18 123.786 202.182C124.522 207.954 126.411 213.533 129.347 218.609" fill="#12233F"/>
<path d="M188.935 205.382C189.856 210.754 180.638 216.664 168.345 218.564C156.034 220.473 145.383 217.657 144.506 212.259C143.585 206.879 152.829 200.961 165.113 199.069C177.363 197.169 188.057 199.994 188.935 205.383" fill="#12233F"/>
<path d="M27.6495 258.003V288.478H40.5421V297.423H17.0417V258.003H27.6495Z" fill="#12233F"/>
<path d="M68.3254 258.003H57.7003V297.423H68.3254V258.003Z" fill="#12233F"/>
<path d="M107.034 256.574C110.75 256.383 114.446 257.209 117.699 258.958C120.952 260.706 123.63 263.307 125.426 266.46L116.903 270.983C115.903 269.287 114.446 267.885 112.689 266.926C110.931 265.967 108.938 265.487 106.921 265.536C99.9532 265.536 96.8083 271.017 96.8083 278.188C96.8083 284.871 99.988 290.218 107.868 290.218C109.98 290.254 112.039 289.575 113.689 288.298C115.339 287.021 116.476 285.226 116.903 283.224H107.572V274.985H127.954V277.145C128.363 279.956 128.12 282.819 127.242 285.527C126.364 288.235 124.873 290.72 122.877 292.8C120.882 294.88 118.432 296.503 115.706 297.552C112.98 298.6 110.047 299.047 107.121 298.86C104.269 298.915 101.436 298.404 98.7964 297.357C96.157 296.311 93.7673 294.752 91.775 292.777C89.7826 290.802 88.23 288.452 87.2129 285.874C86.1959 283.295 85.736 280.542 85.8617 277.784C85.7676 275.035 86.2454 272.296 87.2666 269.729C88.2878 267.162 89.8317 264.82 91.8065 262.841C93.7814 260.863 96.1469 259.288 98.7627 258.212C101.378 257.135 104.191 256.578 107.034 256.574" fill="#12233F"/>
<path d="M155.767 258.006V282.193C155.649 283.152 155.757 284.125 156.084 285.038C156.411 285.951 156.947 286.78 157.653 287.463C158.359 288.146 159.216 288.665 160.159 288.982C161.103 289.298 162.108 289.403 163.099 289.288C164.038 289.391 164.989 289.295 165.885 289.008C166.782 288.72 167.603 288.247 168.292 287.622C168.981 286.996 169.522 286.234 169.876 285.386C170.231 284.539 170.391 283.627 170.345 282.714V258.006H181.083V283.227C181.083 292.231 174.741 298.553 162.873 298.553C153.908 298.553 145.133 294.03 145.133 284.354V258.007L155.767 258.006Z" fill="#12233F"/>
<path d="M211.43 288.663H224.618V297.423H200.796V258.003H224.392V266.956H211.43V273.346H223.645V282.08H211.43V288.663Z" fill="#12233F"/>
<path d="M281.714 297.423H271.054V266.452H265.207V258.003H281.714V297.423Z" fill="#12233F"/>
</svg>
