<svg width="300" height="300" viewBox="0 0 300 300" fill="none" xmlns="http://www.w3.org/2000/svg">
<path d="M200.404 298.539H99.5958C78.5725 298.539 61.5385 282.432 61.5385 262.56V37.4395C61.5385 17.5611 78.5725 1.45468 99.5958 1.45468H200.404C221.42 1.45468 238.462 17.5611 238.462 37.4395V262.56C238.454 282.432 221.42 298.539 200.404 298.539V298.539Z" fill="white"/>
<path d="M61.5385 234.897V262.561C61.5385 282.432 78.5725 298.545 99.5958 298.545H200.404C221.42 298.545 238.462 282.439 238.462 262.561V234.897H61.5385Z" fill="#024494"/>
<path d="M214.25 248.116H211.876C208.836 248.116 208.638 248.431 208.404 248.94L203.699 259.613C202.133 263.15 200.525 266.969 199.894 268.925C199.327 266.936 198.293 264.316 196.089 259.425L191.384 248.946C191.086 248.317 189.917 248.122 187.345 248.122H184.674C182.066 248.122 181.535 248.343 181.535 248.846V281.019C181.535 281.622 182.066 281.742 184.773 281.742H186.24C188.911 281.742 189.648 281.615 189.648 281.019V261.944H189.846C189.846 261.944 190.08 262.829 190.484 263.646L195.891 275.612C196.124 276.148 196.422 276.369 198.93 276.369H200.532C203.104 276.369 203.267 276.181 203.501 275.612L208.439 264.088C208.907 263.016 209.24 261.944 209.24 261.944H209.438V281.039C209.438 281.642 209.942 281.762 212.74 281.762H214.179C216.786 281.762 217.552 281.635 217.552 281.039V248.839C217.622 248.337 216.857 248.116 214.25 248.116Z" fill="#FF1F11"/>
<path d="M174.924 248.839C174.924 248.337 174.187 248.116 171.551 248.116H170.049C167.314 248.116 166.811 248.337 166.811 248.839V281.012C166.811 281.615 167.279 281.735 170.049 281.735H171.587C174.194 281.735 174.959 281.608 174.959 281.012L174.924 248.839Z" fill="white"/>
<path d="M160.462 248.116C161.163 248.116 161.334 248.209 161.334 250.581V252.792C161.334 255.063 161.135 255.352 160.462 255.352H152.413V281.019C152.413 281.622 151.647 281.742 148.941 281.742H147.502C144.767 281.742 144.264 281.615 144.264 281.019V255.352H136.215C135.549 255.352 135.343 255.164 135.343 252.792V250.581C135.343 248.116 135.478 248.116 136.179 248.116H160.462Z" fill="#00BE1B"/>
<path d="M100.368 274.54H85.4102C84.8433 274.54 84.3402 274.761 83.9718 275.109C83.6033 275.458 83.3695 275.933 83.3695 276.469V279.786C83.3695 280.322 83.6033 280.797 83.9718 281.146C84.3402 281.494 84.8433 281.715 85.4102 281.715H100.368V274.54ZM125.31 275.109C124.941 274.761 124.438 274.54 123.871 274.54H108.913V281.709H123.871C124.438 281.709 124.97 281.488 125.31 281.139C125.678 280.791 125.912 280.315 125.912 279.779V276.463C125.912 275.927 125.678 275.451 125.31 275.109ZM125.31 261.911C124.941 261.562 124.438 261.341 123.871 261.341H108.913V268.537H123.871C124.438 268.537 124.97 268.316 125.31 267.967C125.678 267.619 125.912 267.143 125.912 266.607V263.291C125.912 262.728 125.678 262.259 125.31 261.911ZM100.368 261.341H85.4102C84.8433 261.341 84.3402 261.562 83.9718 261.911C83.6033 262.259 83.3695 262.735 83.3695 263.271V266.587C83.3695 267.123 83.6033 267.599 83.9718 267.947C84.3402 268.296 84.8433 268.517 85.4102 268.517H100.368V261.341ZM123.871 255.311H85.4102C84.8433 255.311 84.3402 255.09 83.9718 254.742C83.6033 254.393 83.3695 253.918 83.3695 253.382V250.065C83.3695 249.529 83.6033 249.054 83.9718 248.705C84.3402 248.357 84.8433 248.136 85.4102 248.136H123.871C124.438 248.136 124.97 248.357 125.31 248.705C125.678 249.054 125.912 249.529 125.912 250.065V253.382C125.912 253.918 125.678 254.393 125.31 254.742C124.941 255.09 124.438 255.311 123.871 255.311Z" fill="#E40D2C"/>
<path fill-rule="evenodd" clip-rule="evenodd" d="M83.49 150.345L150.393 189.787L124.034 150.345H83.49Z" fill="url(#paint0_linear)"/>
<path fill-rule="evenodd" clip-rule="evenodd" d="M176.171 150.345L150.393 189.787L216.723 150.345H176.171Z" fill="url(#paint1_linear)"/>
<path fill-rule="evenodd" clip-rule="evenodd" d="M124.034 150.345L150.393 189.787V150.345H124.034Z" fill="url(#paint2_linear)"/>
<path fill-rule="evenodd" clip-rule="evenodd" d="M150.103 82.1542L124.034 150.345H150.393L150.103 82.1542Z" fill="url(#paint3_linear)"/>
<path fill-rule="evenodd" clip-rule="evenodd" d="M150.103 82.1542L150.393 150.345H176.171L150.103 82.1542Z" fill="url(#paint4_linear)"/>
<path fill-rule="evenodd" clip-rule="evenodd" d="M150.393 150.345V189.787L176.171 150.345H150.393Z" fill="url(#paint5_linear)"/>
<path d="M216.723 150.345L163.714 33.6809C151.548 33.6809 148.65 33.6809 136.201 33.6809L83.49 150.345H124.034L150.103 82.1541L162.269 113.925H150.103L143.152 133.642H169.801L176.171 150.345H216.723Z" fill="#008FD7"/>
<path d="M91.8299 223.949C89.8317 223.949 87.8973 223.621 86.0267 222.971C84.1561 222.321 82.6893 221.504 81.6265 220.519C81.421 220.325 81.4068 220.117 81.584 219.896L84.5458 216.693C84.7017 216.499 84.893 216.486 85.1268 216.66C87.4084 218.382 89.7254 219.239 92.0566 219.239C93.4029 219.239 94.4658 218.971 95.231 218.429C95.9963 217.886 96.3789 217.162 96.3789 216.258C96.3789 215.474 96.0742 214.858 95.4649 214.416C94.8555 213.973 93.7926 213.652 92.2905 213.457L90.8875 213.277C85.304 212.54 82.5122 210.034 82.5122 205.766C82.5122 203.461 83.3625 201.605 85.063 200.205C86.7636 198.805 89.0381 198.108 91.9007 198.108C95.5074 198.108 98.5117 198.979 100.9 200.721C101.133 200.868 101.162 201.049 100.978 201.27L98.6038 204.62C98.4479 204.815 98.2637 204.855 98.0582 204.728C95.9821 203.455 93.9273 202.811 91.9078 202.811C90.767 202.811 89.8884 203.066 89.279 203.568C88.6697 204.071 88.365 204.728 88.365 205.538C88.365 206.275 88.6838 206.872 89.3215 207.327C89.9593 207.783 91.015 208.104 92.4959 208.305L93.8989 208.486C99.4541 209.196 102.232 211.729 102.232 216.07C102.232 218.429 101.332 220.331 99.525 221.779C97.7181 223.219 95.1531 223.949 91.8299 223.949V223.949Z" fill="#002D71"/>
<path d="M106.164 223.172V198.865C106.164 198.617 106.292 198.497 106.554 198.497H123.531C123.794 198.497 123.921 198.617 123.921 198.865V202.805C123.921 203.053 123.794 203.173 123.531 203.173H112.123C111.968 203.173 111.89 203.247 111.89 203.394V208.366C111.89 208.513 111.968 208.587 112.123 208.587H121.625C121.887 208.587 122.015 208.707 122.015 208.955V212.861C122.015 213.109 121.887 213.23 121.625 213.23H112.123C111.968 213.23 111.89 213.303 111.89 213.451V218.643C111.89 218.791 111.968 218.864 112.123 218.864H123.538C123.801 218.864 123.928 218.985 123.928 219.233V223.172C123.928 223.42 123.801 223.541 123.538 223.541H106.554C106.292 223.541 106.164 223.42 106.164 223.172V223.172Z" fill="#002D71"/>
<path d="M148.976 223.541H143.442C143.159 223.541 142.96 223.42 142.861 223.172L138.305 214H134.762C134.606 214 134.528 214.074 134.528 214.221V223.172C134.528 223.42 134.401 223.541 134.139 223.541H129.193C128.931 223.541 128.803 223.42 128.803 223.172V198.865C128.803 198.617 128.931 198.497 129.193 198.497H139.751C142.45 198.497 144.625 199.214 146.276 200.654C147.927 202.088 148.749 203.964 148.749 206.269C148.749 207.863 148.331 209.27 147.502 210.483C146.673 211.695 145.518 212.613 144.037 213.23L149.26 223.099C149.309 223.199 149.309 223.293 149.26 223.393C149.196 223.494 149.104 223.541 148.976 223.541V223.541ZM139.432 209.397C140.523 209.397 141.394 209.116 142.039 208.553C142.691 207.99 143.01 207.227 143.01 206.269C143.01 205.337 142.684 204.587 142.039 204.024C141.387 203.461 140.523 203.18 139.432 203.18H134.755C134.599 203.18 134.521 203.254 134.521 203.401V209.183C134.521 209.33 134.599 209.404 134.755 209.404H139.432V209.397Z" fill="#002D71"/>
<path d="M153.32 223.172V198.865C153.32 198.617 153.447 198.497 153.709 198.497H158.655C158.917 198.497 159.045 198.617 159.045 198.865V223.172C159.045 223.42 158.917 223.541 158.655 223.541H153.709C153.447 223.541 153.32 223.42 153.32 223.172Z" fill="#002D71"/>
<path d="M164.721 223.172V198.865C164.721 198.617 164.848 198.497 165.11 198.497H182.088C182.35 198.497 182.477 198.617 182.477 198.865V202.805C182.477 203.053 182.35 203.173 182.088 203.173H170.673C170.517 203.173 170.439 203.247 170.439 203.394V208.366C170.439 208.513 170.517 208.587 170.673 208.587H180.175C180.437 208.587 180.564 208.707 180.564 208.955V212.861C180.564 213.109 180.437 213.23 180.175 213.23H170.673C170.517 213.23 170.439 213.303 170.439 213.451V218.643C170.439 218.791 170.517 218.864 170.673 218.864H182.088C182.35 218.864 182.477 218.985 182.477 219.233V223.172C182.477 223.42 182.35 223.541 182.088 223.541H165.11C164.855 223.541 164.721 223.42 164.721 223.172V223.172Z" fill="#002D71"/>
<path d="M194.707 223.172L203.819 198.865C203.897 198.617 204.067 198.497 204.323 198.497H209.233C209.495 198.497 209.658 198.617 209.736 198.865L218.692 223.172C218.77 223.42 218.678 223.541 218.423 223.541H213.357C213.095 223.541 212.932 223.42 212.854 223.172L211.337 218.791H202.069L200.588 223.172C200.51 223.42 200.34 223.541 200.085 223.541H194.984C194.714 223.541 194.629 223.42 194.707 223.172V223.172ZM203.664 214.188H209.779L206.781 205.424H206.661L203.664 214.188Z" fill="#002D71"/>
<defs>
<linearGradient id="paint0_linear" x1="87.8898" y1="143.138" x2="154.166" y2="183.607" gradientUnits="userSpaceOnUse">
<stop stop-color="#147AD1"/>
<stop offset="1" stop-color="#002D71"/>
</linearGradient>
<linearGradient id="paint1_linear" x1="210.051" y1="141.34" x2="148.354" y2="187.029" gradientUnits="userSpaceOnUse">
<stop stop-color="#147AD1"/>
<stop offset="1" stop-color="#002D71"/>
</linearGradient>
<linearGradient id="paint2_linear" x1="136.362" y1="170.532" x2="174.797" y2="147.063" gradientUnits="userSpaceOnUse">
<stop stop-color="#147AD1"/>
<stop offset="1" stop-color="#002D71"/>
</linearGradient>
<linearGradient id="paint3_linear" x1="162.953" y1="133.388" x2="130.153" y2="109.098" gradientUnits="userSpaceOnUse">
<stop stop-color="#147AD1"/>
<stop offset="1" stop-color="#002D71"/>
</linearGradient>
<linearGradient id="paint4_linear" x1="142.968" y1="109.367" x2="189.316" y2="158.384" gradientUnits="userSpaceOnUse">
<stop stop-color="#147AD1"/>
<stop offset="1" stop-color="#002D71"/>
</linearGradient>
<linearGradient id="paint5_linear" x1="177.489" y1="152.127" x2="141.98" y2="178.422" gradientUnits="userSpaceOnUse">
<stop stop-color="#147AD1"/>
<stop offset="1" stop-color="#002D71"/>
</linearGradient>
</defs>
</svg>
