<svg width="300" height="300" viewBox="0 0 300 300" fill="none" xmlns="http://www.w3.org/2000/svg">
<path d="M149.992 0C232.57 0 299.984 67.3661 299.984 150.114C300.211 233.072 232.57 300 149.115 300C67.2025 300 0 232.407 0 149.886C0 67.3661 67.2025 0.22715 149.992 0ZM81.7016 19.0968C80.3864 19.762 79.5097 19.973 78.844 20.411C65.4489 28.7507 53.3691 38.6317 43.27 50.7031C24.8092 72.4283 14.0607 97.6582 11.6415 126.182C9.88797 145.928 10.099 165.9 15.3759 185.208C39.0973 273.423 137.912 315.349 217.86 271.233C218.737 270.795 219.403 270.357 220.718 269.692C219.841 273.862 218.964 277.366 218.087 281.325C219.63 280.66 220.279 280.449 221.156 280.011C244.439 265.522 262.884 246.441 274.963 221.633C290.989 188.713 293.197 154.04 285.728 119.14C266.18 28.9454 164.507 -16.7117 83.4713 27.6312C82.3673 28.2964 81.0521 28.9454 79.2986 29.8215C80.1591 25.8951 80.8248 22.8286 81.7016 19.0968Z" fill="#3B2050"/>
<path d="M81.0626 27.5295C80.1858 31.2612 79.5201 34.3278 78.6433 38.2867C80.3969 37.4105 81.712 36.7453 82.8161 36.0963C163.852 -8.23037 265.313 37.6377 285.073 127.605C292.753 162.716 290.35 197.389 274.308 230.098C262.228 254.89 243.784 273.776 220.501 288.476C219.835 288.914 218.958 289.141 217.432 289.79C218.309 285.62 219.186 282.327 220.062 278.157C218.747 278.822 217.87 279.26 217.205 279.698C137.273 323.814 38.442 281.889 14.7206 193.673C9.4438 174.138 9.23272 154.393 10.9863 134.647C13.4055 106.123 23.9429 80.8773 42.6148 59.152C52.7138 47.0806 64.7937 37.1996 78.1887 28.86C78.8707 28.4057 79.7474 28.1785 81.0626 27.5295Z" fill="white"/>
<path d="M180.744 231.303C179.64 227.572 178.763 224.505 178.113 221.86C170.645 224.927 163.842 228.448 156.584 230.638C143.4 234.581 130.443 233.705 117.925 228.01C115.295 226.906 114.629 225.381 115.067 222.526C117.698 209.789 118.802 197.296 115.506 184.559C115.278 183.894 115.067 183.018 114.84 182.369C114.84 182.142 114.402 181.931 113.963 181.055C107.371 190.708 100.341 199.713 90.9076 207.177C83.4389 190.936 83.4389 174.256 85.6308 156.701C81.0196 158.015 76.8469 159.329 72.0084 160.643C73.762 145.278 79.4772 132.331 88.4721 120.049C85.6145 119.383 83.1953 118.945 80.3539 118.507C86.0692 106.874 93.9763 97.4472 104.725 89.3185C102.971 97.6581 103.41 104.684 110.651 109.73C109.985 107.312 109.336 104.894 108.898 102.266C108.67 100.287 108.67 98.3234 108.898 96.5548C110.213 89.5294 115.262 86.6738 122.082 88.6533C123.397 89.0913 124.712 89.5294 126.482 90.4056C124.501 85.5705 121.205 83.6073 117.259 81.8388C117.259 81.4007 117.259 81.1736 117.032 80.7355C123.397 78.756 129.55 76.3385 136.142 74.8134C141.857 73.4991 147.995 73.4991 153.937 72.8339C159.653 72.1687 164.036 74.3753 167.771 78.5451C169.086 79.8593 170.401 81.1735 171.944 82.4878C172.171 82.2606 172.609 82.2606 172.82 82.0497C172.382 79.8593 171.944 77.8799 171.505 75.4624C172.171 75.4624 172.82 75.4624 173.486 75.6895C180.289 77.669 186.881 80.2974 192.369 84.9053C193.246 85.5705 194.561 86.4467 194.788 87.5337C196.103 91.9307 197.207 96.5386 198.523 100.708C192.158 96.3115 185.566 91.7036 178.536 86.8847C177.431 90.1784 176.782 92.5959 175.905 95.2244C170.856 92.1579 166.456 89.3023 161.844 86.8847C160.091 86.0086 157.672 85.5705 155.691 86.0086C148.011 87.3228 140.753 90.1784 134.161 95.6625C135.265 96.5386 136.353 97.2038 138.107 98.5181C133.268 100.936 129.096 103.126 125.816 107.961C131.531 107.085 132.181 110.817 133.934 114.11C136.792 119.821 141.841 122.677 148.206 122.888C155.886 123.115 163.582 122.888 171.489 122.888C169.297 120.47 166.65 118.053 164.247 115.424C161.617 112.358 158.321 111.255 154.36 111.693C148.872 112.131 143.595 110.817 139.211 107.296C145.365 100.059 151.064 99.8323 163.371 106.42C165.352 105.316 167.316 104.44 169.297 103.353C169.524 104.018 169.735 104.229 169.735 104.229C167.105 109.713 167.105 109.713 171.489 114.11C174.119 116.739 176.538 119.594 178.958 122.223C182.254 121.558 185.55 120.681 188.846 120.681C192.142 120.454 195.438 121.119 199.172 121.347C194.334 116.073 189.511 111.255 184.673 106.209C184.9 105.771 185.339 105.333 185.55 104.894C187.303 105.998 189.057 106.874 191.038 107.961C193.229 107.523 194.545 103.126 197.63 106.209C199.821 108.399 199.61 110.606 197.402 113.445C199.156 115.424 201.137 117.177 203.117 119.594C203.556 118.053 203.783 117.404 204.222 116.528H204.887C220.701 138.918 225.313 163.061 216.301 190.043C214.109 187.626 212.129 185.646 209.709 183.245C208.167 193.564 205.537 202.553 200.487 210.681C195.681 219.021 189.089 225.819 180.744 231.303ZM156.357 141.109C158.987 146.155 161.633 150.762 163.825 155.37C164.929 157.788 166.456 158.226 168.664 157.561C176.344 155.581 182.286 150.762 188.423 145.927C188.651 145.7 189.089 145.262 189.089 144.824C189.089 141.53 189.528 138.237 188.862 135.17C188.635 133.856 185.793 133.191 184.251 132.104C183.147 131.439 182.27 130.562 181.182 130.351C179.64 129.913 177.886 129.248 176.344 129.686C168.875 131.893 162.737 136.29 156.357 141.109ZM170.206 167.442C171.083 169.421 172.625 171.839 173.713 174.467C174.59 176.447 175.694 176.885 177.448 176.009C180.744 174.256 184.04 172.715 187.774 170.963L189.089 181.493C189.528 181.493 189.966 181.493 190.193 181.265C195.243 177.323 198.539 172.05 198.977 165.9C199.204 163.045 197.224 158.875 194.804 157.334C192.824 156.019 188.44 156.668 186.02 157.999C180.744 160.205 175.694 163.937 170.206 167.442ZM202.923 129.702C200.503 131.244 198.75 132.558 196.769 133.872C196.103 134.31 195.454 135.187 195.454 135.852C193.473 144.419 198.523 149.903 203.799 155.825C207.323 147.031 206.219 138.48 202.923 129.702Z" fill="#3B2050"/>
<path d="M167.349 42.8015C167.787 49.3888 168.225 55.0838 168.891 61.4602C172.625 57.2904 175.694 53.9967 178.99 50.4921L179.656 51.1573C178.341 57.5175 176.798 64.1049 175.256 70.6922C153.288 65.2082 132.213 67.6257 112.015 78.3666C109.157 72.0064 106.089 66.0843 102.793 58.8317C107.404 61.6873 111.366 64.3158 115.977 67.1714C115.1 61.0221 114.223 55.3271 113.119 48.9507C120.149 53.7858 126.303 57.9556 132.879 62.5635C135.071 55.9761 137.279 49.8269 139.682 42.8177C143.627 48.9669 147.151 54.451 150.885 60.6003C156.584 54.6457 161.633 49.1616 167.349 42.8015ZM31.8396 190.708C31.4013 189.394 30.9629 188.518 30.5245 187.415C34.6973 185.662 38.6427 184.121 43.0428 182.369C44.3579 185.873 45.6731 189.394 47.2155 193.337C47.8812 194.651 49.1964 196.403 49.4074 198.383C49.6347 201.238 46.9882 202.115 44.7963 202.991C42.6044 203.867 40.6235 204.743 38.2043 205.619C37.7659 204.516 37.3276 203.64 36.6619 202.326C39.0811 201.222 41.5003 200.573 43.6922 199.259C44.569 198.821 45.0074 197.28 45.4458 196.403C44.3417 195.965 43.0265 195.089 41.9387 195.3C39.7468 195.738 37.5386 196.841 34.9083 197.929C34.4699 197.052 34.0316 195.949 33.3659 194.862C35.7851 193.759 38.2043 193.11 40.1689 191.795C41.0457 191.13 41.4841 189.816 41.9225 188.729C40.8184 188.502 39.5032 187.626 38.4154 187.853C36.6781 188.729 34.4862 189.832 31.8396 190.708ZM79.0551 225.819C80.1592 226.695 81.0359 227.361 82.1238 228.237C78.6167 232.634 75.3207 236.804 71.5864 241.412C73.7783 243.164 75.7591 244.916 78.1783 246.896C77.5127 247.772 76.8632 248.648 75.9864 249.751L66.0985 241.85C70.4985 236.576 74.6713 231.303 79.0551 225.819ZM137.701 259.843C140.331 259.405 141.435 260.281 140.77 262.699L140.104 267.307C139.438 271.249 136.597 273.667 132.863 273.018C128.917 272.58 126.709 269.951 126.936 265.781C127.164 263.364 127.602 260.946 127.813 258.107C129.128 258.334 130.005 258.545 131.32 258.772C130.882 261.19 130.443 263.607 130.443 265.798C130.443 267.112 131.547 268.864 132.635 269.302C134.389 270.178 135.704 268.637 136.142 266.885C136.824 264.662 137.263 262.261 137.701 259.843ZM36.8892 167.004C34.9083 159.767 29.8588 164.586 25.9134 163.272C25.9134 162.607 25.686 161.52 25.475 160.205C30.0861 159.767 34.4862 159.102 38.6589 158.664C39.0973 161.52 39.3246 163.71 39.5357 166.338C38.87 166.566 37.9932 166.566 36.8892 167.004ZM55.1226 230.427C54.457 229.762 54.0186 228.886 53.1418 228.01L63.0298 219.443C64.7833 221.422 66.5368 223.386 68.5177 225.592C68.0793 226.03 67.2025 226.695 66.5368 227.344C60.8379 222.315 59.0681 229.34 55.1226 230.427ZM41.9387 211.996C41.273 210.892 40.8346 210.016 40.1852 208.929C44.1306 206.739 47.865 204.532 52.0377 202.342C52.7034 203.445 53.1418 204.321 54.0186 205.408C49.8458 207.615 45.9004 209.578 41.9387 211.996ZM56.6651 198.383C57.7692 199.924 58.857 200.8 58.646 201.677C58.4186 202.553 57.3308 203.218 56.6651 203.867C55.9994 203.202 54.6843 202.326 54.4732 201.677C54.2459 200.8 55.561 199.924 56.6651 198.383Z" fill="#3B2050"/>
<path d="M156.357 141.109C162.721 136.274 168.875 131.893 176.344 129.913C177.886 129.475 179.64 130.141 181.182 130.579C182.286 131.017 183.163 131.682 184.251 132.331C185.793 133.207 188.651 134.083 188.862 135.398C189.528 138.464 189.089 141.758 189.089 145.051C189.089 145.489 188.651 145.928 188.423 146.155C182.497 150.99 176.571 155.809 168.664 157.788C166.245 158.453 164.929 157.788 163.825 155.598C161.633 150.763 159.003 146.155 156.357 141.109ZM170.206 167.442C175.694 163.937 180.744 160.416 186.02 157.561C188.651 156.247 192.824 155.581 194.804 156.896C197.224 158.437 199.204 162.607 198.977 165.462C198.539 171.612 195.243 176.869 190.193 180.827C189.966 181.055 189.528 181.055 189.089 181.055L187.774 170.525C184.04 172.277 180.744 174.029 177.448 175.571C175.694 176.447 174.59 176.009 173.713 174.029C172.609 171.839 171.294 169.21 170.206 167.442ZM202.923 129.703C206.219 138.48 207.534 146.82 203.799 156.036C198.522 150.114 193.473 144.402 195.454 136.063C195.681 135.398 196.331 134.521 196.769 134.083C198.522 132.558 200.503 131.455 202.923 129.703Z" fill="white"/>
<path d="M121.221 256.988C118.591 254.797 115.944 254.797 113.103 256.549C110.472 258.091 109.368 261.595 110.245 264.889C111.122 267.745 113.541 269.497 116.837 269.497H118.591C116.837 273.229 114.645 273.229 109.807 269.497C109.141 270.162 108.492 270.6 107.615 271.476C111.788 277.188 119.256 277.626 121.448 272.353C123.429 267.745 124.306 262.91 125.848 258.091C124.079 257.637 122.325 257.864 121.221 256.988ZM121.659 263.348C120.117 264.224 118.802 265.765 117.259 265.976C115.067 266.203 113.752 264.435 113.963 262.244C114.191 260.054 115.506 258.513 117.47 258.951C119.013 259.389 120.328 260.93 121.643 261.806V263.348H121.659ZM45.673 142.65H25.2476V146.155C27.4395 146.155 29.6476 146.382 31.8395 146.382C31.8395 147.923 31.8395 149.237 32.0669 150.324C32.5052 154.056 35.1355 156.474 38.8699 156.474C42.377 156.474 45.2346 154.283 45.673 150.763C45.9003 148.134 45.673 145.506 45.673 142.65ZM40.6234 151.866C40.1851 152.304 37.7658 152.531 37.5548 151.866C36.4507 150.552 36.0123 148.572 35.1355 146.382H42.6043C41.7275 148.572 41.5002 150.552 40.6234 151.866ZM105.861 251.504C103.669 249.524 101.25 249.086 98.6199 249.962C95.7623 251.065 94.2198 253.467 94.0088 256.549C94.0088 259.178 95.1128 261.823 97.7431 262.91C100.162 264.013 102.582 264.662 105.423 265.538C107.177 261.806 108.93 257.864 110.7 253.905C108.93 252.818 107.177 252.591 105.861 251.504ZM101.689 260.054C100.373 260.054 98.3926 258.302 98.1815 256.988C97.7431 255.008 99.2856 253.045 101.478 253.256C103.02 253.483 104.335 254.797 105.878 255.673V257.215C104.319 258.302 103.004 260.054 101.689 260.054ZM92.239 253.467C94.8693 250.173 94.8693 246.879 92.4663 244.251C90.0471 241.623 85.8743 241.184 83.0167 243.375C80.1591 245.565 79.2823 249.735 81.0359 252.591C83.0167 255.657 86.7511 257.198 90.6965 255.219C89.3814 254.343 88.5046 253.467 87.4005 253.029C85.2086 252.363 83.4551 251.276 83.8935 248.194C86.7511 250.4 89.3814 251.942 92.239 253.467ZM90.9239 249.751C88.7319 248.437 87.1895 247.334 85.4359 246.247C88.7157 244.689 90.2582 245.581 90.9239 249.751ZM151.745 270.373C149.326 271.687 147.8 270.811 146.696 268.183H156.357C156.357 263.348 154.603 260.719 150.869 260.07C147.8 259.405 144.504 261.174 143.189 264.24C141.874 267.534 142.962 271.266 145.608 273.245C148.466 275.224 152.638 274.559 155.269 271.931C154.392 269.935 153.515 269.497 151.745 270.373ZM152.638 265.327H146.712C148.677 262.261 149.992 262.261 152.638 265.327ZM59.2953 213.537C57.7529 210.243 54.4569 208.702 50.9498 209.594C47.6538 210.471 45.2346 213.537 45.673 217.058C45.9003 220.562 48.5306 223.418 53.3528 223.645C52.476 222.104 52.2487 221.017 51.3719 220.352C48.9527 218.372 48.5143 217.285 50.0568 214.64C52.0376 217.269 53.7912 219.686 55.772 222.315C59.7337 219.897 60.8378 216.831 59.2953 213.537ZM55.3499 217.707C54.2458 216.166 53.369 214.64 52.2812 213.31C52.5085 213.083 52.7196 212.872 52.9469 212.434C54.051 213.099 55.3661 213.537 56.0156 214.413C56.6813 215.289 56.4539 216.604 56.6813 217.707H55.3499ZM41.9386 175.571C41.7113 172.277 39.5194 169.648 36.2234 168.983C32.7163 168.318 29.4203 170.087 28.1052 172.926C26.5627 176.431 27.8779 180.162 31.6122 182.58C32.0506 181.915 32.7163 181.038 33.1547 180.389C31.4012 177.972 29.6476 175.782 32.7163 172.926C33.5931 176.431 34.4698 179.286 35.3466 182.58C40.1851 181.493 42.1659 179.302 41.9386 175.571ZM36.8891 178.426C36.4507 176.236 36.0123 174.484 35.5739 172.277C39.3083 174.029 39.5356 175.781 36.8891 178.426Z" fill="#3B2050"/>
</svg>
